<mxfile host="app.diagrams.net" modified="2023-12-04T20:09:08.161Z" agent="Mozilla/5.0 (Windows NT 10.0; Win64; x64) AppleWebKit/537.36 (KHTML, like Gecko) Chrome/119.0.0.0 Safari/537.36" etag="ZqS86PJ45wB0Ub5bmKC5" version="22.1.5" type="device">
  <diagram name="Page-1" id="VIciAjUyw2bonOd35A5a">
    <mxGraphModel dx="1674" dy="833" grid="1" gridSize="10" guides="1" tooltips="1" connect="1" arrows="1" fold="1" page="1" pageScale="1" pageWidth="1169" pageHeight="1654" math="0" shadow="0">
      <root>
        <mxCell id="0" />
        <mxCell id="1" parent="0" />
        <mxCell id="BDhTDTH_CN8GKK3Q6U_W-13" value="" style="rounded=0;whiteSpace=wrap;html=1;" vertex="1" parent="1">
          <mxGeometry x="440" y="75" width="400" height="1075" as="geometry" />
        </mxCell>
        <mxCell id="BDhTDTH_CN8GKK3Q6U_W-2" value="Rental 1&amp;nbsp;&lt;br&gt;&lt;h2 style=&quot;font-size: 1em; font-family: sans-serif;&quot; data-v-3f35d901=&quot;&quot;&gt;Rental Description&lt;/h2&gt;&lt;h2 style=&quot;font-size: 1em; font-family: sans-serif;&quot; data-v-3f35d901=&quot;&quot;&gt;Renter Name&amp;nbsp;&lt;/h2&gt;&lt;h2 style=&quot;font-size: 1em; font-family: sans-serif;&quot; data-v-3f35d901=&quot;&quot;&gt;Distance from UNH&amp;nbsp;&lt;/h2&gt;" style="rounded=0;whiteSpace=wrap;html=1;" vertex="1" parent="1">
          <mxGeometry x="470" y="140" width="340" height="180" as="geometry" />
        </mxCell>
        <mxCell id="BDhTDTH_CN8GKK3Q6U_W-8" value="Rental 5&lt;br&gt;&lt;h2 style=&quot;border-color: var(--border-color); font-size: 1em; font-family: sans-serif;&quot; data-v-3f35d901=&quot;&quot;&gt;Rental Description&lt;/h2&gt;&lt;h2 style=&quot;border-color: var(--border-color); font-size: 1em; font-family: sans-serif;&quot; data-v-3f35d901=&quot;&quot;&gt;Renter Name&amp;nbsp;&lt;/h2&gt;&lt;h2 style=&quot;border-color: var(--border-color); font-size: 1em; font-family: sans-serif;&quot; data-v-3f35d901=&quot;&quot;&gt;Distance from UNH&lt;/h2&gt;" style="rounded=0;whiteSpace=wrap;html=1;" vertex="1" parent="1">
          <mxGeometry x="470" y="940" width="340" height="180" as="geometry" />
        </mxCell>
        <mxCell id="BDhTDTH_CN8GKK3Q6U_W-9" value="Rental 4&lt;br&gt;&lt;h2 style=&quot;border-color: var(--border-color); font-size: 1em; font-family: sans-serif;&quot; data-v-3f35d901=&quot;&quot;&gt;Rental Description&lt;/h2&gt;&lt;h2 style=&quot;border-color: var(--border-color); font-size: 1em; font-family: sans-serif;&quot; data-v-3f35d901=&quot;&quot;&gt;Renter Name&amp;nbsp;&lt;/h2&gt;&lt;h2 style=&quot;border-color: var(--border-color); font-size: 1em; font-family: sans-serif;&quot; data-v-3f35d901=&quot;&quot;&gt;Distance from UNH&lt;/h2&gt;" style="rounded=0;whiteSpace=wrap;html=1;" vertex="1" parent="1">
          <mxGeometry x="470" y="737" width="340" height="180" as="geometry" />
        </mxCell>
        <mxCell id="BDhTDTH_CN8GKK3Q6U_W-10" value="Rental 2&lt;br&gt;&lt;h2 style=&quot;border-color: var(--border-color); font-size: 1em; font-family: sans-serif;&quot; data-v-3f35d901=&quot;&quot;&gt;Rental Description&lt;/h2&gt;&lt;h2 style=&quot;border-color: var(--border-color); font-size: 1em; font-family: sans-serif;&quot; data-v-3f35d901=&quot;&quot;&gt;Renter Name&amp;nbsp;&lt;/h2&gt;&lt;h2 style=&quot;border-color: var(--border-color); font-size: 1em; font-family: sans-serif;&quot; data-v-3f35d901=&quot;&quot;&gt;Distance from UNH&lt;/h2&gt;" style="rounded=0;whiteSpace=wrap;html=1;" vertex="1" parent="1">
          <mxGeometry x="470" y="340" width="340" height="180" as="geometry" />
        </mxCell>
        <mxCell id="BDhTDTH_CN8GKK3Q6U_W-11" value="Rental 3&lt;br&gt;&lt;h2 style=&quot;border-color: var(--border-color); font-size: 1em; font-family: sans-serif;&quot; data-v-3f35d901=&quot;&quot;&gt;Rental Description&lt;/h2&gt;&lt;h2 style=&quot;border-color: var(--border-color); font-size: 1em; font-family: sans-serif;&quot; data-v-3f35d901=&quot;&quot;&gt;Renter Name&amp;nbsp;&lt;/h2&gt;&lt;h2 style=&quot;border-color: var(--border-color); font-size: 1em; font-family: sans-serif;&quot; data-v-3f35d901=&quot;&quot;&gt;Distance from UNH&lt;/h2&gt;" style="rounded=0;whiteSpace=wrap;html=1;" vertex="1" parent="1">
          <mxGeometry x="470" y="540" width="340" height="180" as="geometry" />
        </mxCell>
        <mxCell id="BDhTDTH_CN8GKK3Q6U_W-12" value="Rental Properties" style="text;html=1;strokeColor=none;fillColor=none;align=center;verticalAlign=middle;whiteSpace=wrap;rounded=0;" vertex="1" parent="1">
          <mxGeometry x="560" y="90" width="135" height="30" as="geometry" />
        </mxCell>
      </root>
    </mxGraphModel>
  </diagram>
</mxfile>
